<svg aria-hidden="true" style="position: absolute; width: 0; height: 0; overflow: hidden;" version="1.1" xmlns="http://www.w3.org/2000/svg" xmlns:xlink="http://www.w3.org/1999/xlink">
<defs>
<symbol id="icon-delivery_dining" viewBox="0 0 24 24">
<path d="M18.984 17.016q0.422 0 0.727-0.305t0.305-0.727-0.305-0.703-0.727-0.281-0.703 0.281-0.281 0.703 0.281 0.727 0.703 0.305zM18.984 12.984q1.219 0 2.109 0.891t0.891 2.109-0.891 2.109-2.109 0.891-2.109-0.891-0.891-2.109 0.891-2.109 2.109-0.891zM5.016 6h4.969v2.016h-4.969v-2.016zM6.984 17.016q0.422 0 0.727-0.305t0.305-0.727h-2.016q0 0.422 0.281 0.727t0.703 0.305zM18.984 6.984v3.375l-4.5 5.625h-4.5q0 1.219-0.891 2.109t-2.109 0.891-2.109-0.891-0.891-2.109h-1.969v-3q0-1.641 1.172-2.813t2.813-1.172h3.984v5.016h3.516l3.516-4.359v-2.672h-3v-1.969h3q0.797 0 1.383 0.586t0.586 1.383z"></path>
</symbol>
<symbol id="icon-user" viewBox="0 0 24 24">
<path d="M17 9c0-1.381-0.56-2.631-1.464-3.535s-2.155-1.465-3.536-1.465-2.631 0.56-3.536 1.465c-0.904 0.904-1.464 2.154-1.464 3.535s0.56 2.631 1.464 3.535c0.905 0.905 2.155 1.465 3.536 1.465s2.631-0.56 3.536-1.465c0.904-0.904 1.464-2.154 1.464-3.535z"></path>
<path d="M6 19c0 1 2.25 2 6 2 3.518 0 6-1 6-2 0-2-2.354-4-6-4-3.75 0-6 2-6 4z"></path>
</symbol>
<symbol id="icon-home-outline" viewBox="0 0 24 24">
<path d="M22.262 10.468c-3.39-2.854-9.546-8.171-9.607-8.225l-0.655-0.563-0.652 0.563c-0.062 0.053-6.221 5.368-9.66 8.248-0.438 0.394-0.688 0.945-0.688 1.509 0 1.104 0.896 2 2 2h1v6c0 1.104 0.896 2 2 2h12c1.104 0 2-0.896 2-2v-6h1c1.104 0 2-0.896 2-2 0-0.598-0.275-1.161-0.738-1.532zM14 20h-4v-5h4v5zM18 12l0.002 8c-0.002 0-3.002 0-3.002 0v-6h-6v6h-3v-8h-3.001c2.765-2.312 7.315-6.227 9.001-7.68 1.686 1.453 6.234 5.367 9 7.681 0 0-3 0-3-0.001z"></path>
</symbol>
<symbol id="icon-user-outline" viewBox="0 0 24 24">
<path d="M12 6c1.654 0 3 1.346 3 3s-1.346 3-3 3-3-1.346-3-3 1.346-3 3-3M12 4c-2.764 0-5 2.238-5 5s2.236 5 5 5 5-2.238 5-5-2.236-5-5-5z"></path>
<path d="M12 17c2.021 0 3.301 0.771 3.783 1.445-0.683 0.26-1.969 0.555-3.783 0.555-1.984 0-3.206-0.305-3.818-0.542 0.459-0.715 1.777-1.458 3.818-1.458M12 15c-3.75 0-6 2-6 4 0 1 2.25 2 6 2 3.518 0 6-1 6-2s-2.354-4-6-4z"></path>
</symbol>
<symbol id="icon-lock-closed-outline" viewBox="0 0 24 24">
<path d="M13.3 17c0 0.718-0.582 1.3-1.3 1.3s-1.3-0.582-1.3-1.3c0-0.718 0.582-1.3 1.3-1.3s1.3 0.582 1.3 1.3z"></path>
<path d="M17 10h-1v-2c0-2.206-1.794-4-4-4s-4 1.794-4 4v2h-1c-1.104 0-2 0.896-2 2v7c0 1.104 0.896 2 2 2h10c1.104 0 2-0.896 2-2v-7c0-1.104-0.896-2-2-2zM10 8c0-1.104 0.896-2 2-2s2 0.896 2 2v3h-4v-3zM17 19h-10v-7h10.003l-0.003 7z"></path>
</symbol>
<symbol id="icon-chat" viewBox="0 0 20 20">
<path d="M5.8 12.2v-6.2h-3.8c-1.1 0-2 0.9-2 2v6c0 1.1 0.9 2 2 2h1v3l3-3h5c1.1 0 2-0.9 2-2v-1.82c-0.064 0.014-0.132 0.021-0.2 0.021l-7-0.001zM18 1h-9c-1.1 0-2 0.9-2 2v8h7l3 3v-3h1c1.1 0 2-0.899 2-2v-6c0-1.1-0.9-2-2-2z"></path>
</symbol>
<symbol id="icon-chat-bubble-dots" viewBox="0 0 20 20">
<path d="M10 15l-4 4v-4h-4c-1.105 0-2-0.895-2-2v0-10c0-1.1 0.9-2 2-2h16c1.105 0 2 0.895 2 2v0 10c0 1.105-0.895 2-2 2v0h-8zM5 7v2h2v-2h-2zM9 7v2h2v-2h-2zM13 7v2h2v-2h-2z"></path>
</symbol>
<symbol id="icon-home" viewBox="0 0 32 32">
<path d="M32 18.451l-16-12.42-16 12.42v-5.064l16-12.42 16 12.42zM28 18v12h-8v-8h-8v8h-8v-12l12-9z"></path>
</symbol>
<symbol id="icon-truck" viewBox="0 0 32 32">
<path d="M32 18l-4-8h-6v-4c0-1.1-0.9-2-2-2h-18c-1.1 0-2 0.9-2 2v16l2 2h2.536c-0.341 0.588-0.536 1.271-0.536 2 0 2.209 1.791 4 4 4s4-1.791 4-4c0-0.729-0.196-1.412-0.536-2h11.073c-0.341 0.588-0.537 1.271-0.537 2 0 2.209 1.791 4 4 4s4-1.791 4-4c0-0.729-0.196-1.412-0.537-2h2.537v-6zM22 18v-6h4.146l3 6h-7.146z"></path>
</symbol>
<symbol id="icon-shield" viewBox="0 0 32 32">
<path d="M30 0l-14 4-14-4c0 0-0.141 1.616 0 4l14 4.378 14-4.378c0.141-2.384 0-4 0-4zM2.256 6.097c0.75 7.834 3.547 21.007 13.744 25.903 10.197-4.896 12.995-18.069 13.744-25.903l-13.744 5.167-13.744-5.167z"></path>
</symbol>
</defs>
</svg>
